<svg width="30" height="34" viewBox="0 0 30 34" fill="none" xmlns="http://www.w3.org/2000/svg">
<g filter="url(#filter0_d_921_6908)">
<path d="M7.38483 12.2393L8.98601 13.1517L5.73452 18.7106L4.80128 16.6562L7.38483 12.2393Z" fill="#CE4444"/>
<path d="M7.38483 12.2393L5.78365 11.3268L2.53217 16.8856L4.80128 16.6562L7.38483 12.2393Z" fill="#983535"/>
<path d="M9.66931 12.2393L8.06813 13.1517L11.3196 18.7106L12.2529 16.6562L9.66931 12.2393Z" fill="#983535"/>
<path d="M9.66931 12.2393L11.2705 11.3268L14.522 16.8856L12.2529 16.6562L9.66931 12.2393Z" fill="#CE4444"/>
<path d="M8.47788 14.4797C11.8608 14.4797 14.6172 11.7706 14.6172 8.41168C14.6172 5.05273 11.8608 2.34364 8.47788 2.34364C5.09492 2.34364 2.33852 5.05273 2.33852 8.41168C2.33852 11.7706 5.09492 14.4797 8.47788 14.4797Z" fill="url(#paint0_linear_921_6908)" stroke="#765C00" stroke-width="1.25363"/>
<ellipse cx="8.47791" cy="8.41143" rx="4.30304" ry="4.24737" fill="#A88300"/>
<mask id="mask0_921_6908" style="mask-type:alpha" maskUnits="userSpaceOnUse" x="4" y="4" width="10" height="10">
<ellipse cx="8.70771" cy="8.86565" rx="4.31306" ry="4.25725" fill="#C28B37"/>
</mask>
<g mask="url(#mask0_921_6908)">
<ellipse cx="8.47828" cy="8.41204" rx="4.31306" ry="4.25725" fill="#C09525"/>
</g>
<path d="M8.50124 5.4502L9.43163 7.28689L11.2924 7.51648L10.0147 8.93074L10.362 10.9603L8.50124 10.0419L6.64047 10.9603L6.99092 8.93074L5.71008 7.51648L7.57086 7.28689L8.50124 5.4502Z" fill="url(#paint1_linear_921_6908)"/>
<path d="M3.14769 5.11313L3.75433 3.79531L3.14769 2.47749L4.48279 3.07628L5.81788 2.47749L5.21125 3.79531L5.81788 5.11313L4.48279 4.51435L3.14769 5.11313Z" fill="white"/>
</g>
<defs>
<filter id="filter0_d_921_6908" x="0.729515" y="0.734581" width="29.2478" height="32.7094" filterUnits="userSpaceOnUse" color-interpolation-filters="sRGB">
<feFlood flood-opacity="0" result="BackgroundImageFix"/>
<feColorMatrix in="SourceAlpha" type="matrix" values="0 0 0 0 0 0 0 0 0 0 0 0 0 0 0 0 0 0 127 0" result="hardAlpha"/>
<feOffset dx="6.87552" dy="6.87552"/>
<feGaussianBlur stdDeviation="3.92887"/>
<feComposite in2="hardAlpha" operator="out"/>
<feColorMatrix type="matrix" values="0 0 0 0 0 0 0 0 0 0 0 0 0 0 0 0 0 0 0.3 0"/>
<feBlend mode="normal" in2="BackgroundImageFix" result="effect1_dropShadow_921_6908"/>
<feBlend mode="normal" in="SourceGraphic" in2="effect1_dropShadow_921_6908" result="shape"/>
</filter>
<linearGradient id="paint0_linear_921_6908" x1="8.47788" y1="2.97046" x2="8.47788" y2="13.8529" gradientUnits="userSpaceOnUse">
<stop stop-color="#FFC600"/>
<stop offset="1" stop-color="#FFDE69"/>
</linearGradient>
<linearGradient id="paint1_linear_921_6908" x1="8.50124" y1="5.4502" x2="8.50124" y2="10.9603" gradientUnits="userSpaceOnUse">
<stop stop-color="#FFFCDD"/>
<stop offset="1" stop-color="#FFE896"/>
</linearGradient>
</defs>
</svg>
