<svg width="29" height="18" viewBox="0 0 29 18" fill="none" xmlns="http://www.w3.org/2000/svg">
<path d="M18.3516 1.16719H25.3652V2.86875H18.3516V1.16719ZM11.3238 7.89961C12.8742 7.15781 13.6863 6.0293 13.6863 4.28555C13.6863 0.836718 11.1199 0 8.15625 0H0V17.3109H8.38477C11.5277 17.3109 14.4773 15.7992 14.4773 12.2836C14.4773 10.1109 13.4508 8.5043 11.3238 7.89961ZM3.80391 2.95312H7.37227C8.74688 2.95312 9.98086 3.33633 9.98086 4.93242C9.98086 6.40195 9.02109 6.99258 7.66055 6.99258H3.80391V2.95312ZM7.86445 14.3719H3.80039V9.60469H7.94531C9.61875 9.60469 10.677 10.3043 10.677 12.0762C10.677 13.8199 9.41484 14.3719 7.86445 14.3719ZM28.1074 11.2254C28.1074 7.51641 25.9383 4.42617 22.0148 4.42617C18.2004 4.42617 15.6059 7.29844 15.6059 11.0637C15.6059 14.966 18.0633 17.6449 22.0148 17.6449C25.0066 17.6449 26.9438 16.2984 27.8754 13.4262H24.8414C24.5109 14.4984 23.168 15.0609 22.1238 15.0609C20.1059 15.0609 19.0512 13.8797 19.0512 11.8723H28.0828C28.0934 11.6648 28.1074 11.4469 28.1074 11.2254ZM19.0512 9.69961C19.1602 8.05078 20.2605 7.0207 21.9059 7.0207C23.6355 7.0207 24.5004 8.03672 24.6516 9.69961H19.0512Z" fill="#042825"/>
</svg>
