<svg width="24" height="24" viewBox="0 0 24 24" fill="none" xmlns="http://www.w3.org/2000/svg">
<path d="M11.6803 15.3902C11.2215 16.1113 10.7813 16.8168 9.79491 17.5021C9.26728 17.872 8.05284 18.5946 6.32663 18.5946C3.03323 18.5946 0.375 16.2002 0.375 11.9907C0.375 8.31164 2.87555 5.4054 6.39684 5.4054C7.82344 5.4054 9.09094 5.89857 10.0244 6.6384C10.8875 7.32511 11.2918 8.01202 11.6445 8.62852L9.17981 9.86007C9.00347 9.45572 8.79122 9.03277 8.24639 8.57541C7.64714 8.0994 7.0492 7.95891 6.53733 7.95891C4.53009 7.95891 3.47339 9.82571 3.47339 11.9032C3.47339 14.6331 4.86558 15.988 6.53733 15.988C8.15747 15.988 8.80983 14.8611 9.23142 14.1399L11.6803 15.3902V15.3902ZM20.3144 5.79254H23.625L19.3108 18.2247H16.1422L11.881 5.79254H15.1916L17.7623 14.6332L20.3144 5.79254Z" fill="white"/>
</svg>
