<svg width="95" height="95" viewBox="0 0 95 95" fill="none" xmlns="http://www.w3.org/2000/svg">
<path d="M49.9839 9.01478V10.3124L45.4346 10.3124V9.01478L49.9839 9.01478Z" fill="white"/>
<path d="M59.0563 8.01614C59.1097 7.54183 58.9766 7.13457 58.6568 6.79435C58.3378 6.45087 57.8917 6.21373 57.3186 6.08291C56.9083 5.98926 56.5384 5.97338 56.2091 6.03525C55.8805 6.09387 55.6076 6.21658 55.3902 6.40337C55.1768 6.58764 55.0378 6.82143 54.9732 7.10474C54.9189 7.34246 54.9274 7.56025 54.9988 7.75812C55.0733 7.95672 55.1884 8.13545 55.344 8.2943C55.5036 8.45064 55.6804 8.59205 55.8742 8.71851C56.0688 8.84172 56.2582 8.95005 56.4424 9.04349L57.3614 9.52047C57.6627 9.67147 57.9658 9.852 58.2707 10.0621C58.5756 10.2721 58.8465 10.519 59.0833 10.8026C59.32 11.0861 59.4895 11.4092 59.5918 11.7717C59.6973 12.135 59.6988 12.5413 59.5962 12.9907C59.4669 13.5573 59.2055 14.027 58.8121 14.3997C58.422 14.7732 57.9211 15.0237 57.3095 15.1514C56.7012 15.2798 56.0063 15.2548 55.2247 15.0764C54.4758 14.9055 53.8549 14.6387 53.362 14.2761C52.8692 13.9135 52.5179 13.4787 52.3082 12.9718C52.0991 12.4615 52.0471 11.9015 52.152 11.2916L53.6663 11.6372C53.6131 12.0054 53.6616 12.3334 53.8117 12.6212C53.9659 12.9064 54.1908 13.1445 54.4864 13.3353C54.786 13.5236 55.1296 13.662 55.5171 13.7504C55.9437 13.8478 56.3383 13.8676 56.7009 13.8099C57.0676 13.7497 57.3745 13.621 57.6216 13.4239C57.8695 13.2235 58.0306 12.9605 58.1049 12.6349C58.1725 12.3386 58.1432 12.0766 58.017 11.8491C57.894 11.6223 57.7034 11.4144 57.4451 11.2252C57.19 11.0368 56.8941 10.8545 56.5575 10.6783L55.449 10.0861C54.6977 9.68509 54.1359 9.2194 53.7636 8.68903C53.3946 8.15941 53.2896 7.54616 53.4486 6.84928C53.5802 6.27289 53.8513 5.80545 54.262 5.44695C54.6728 5.08846 55.1723 4.8513 55.7606 4.73547C56.3497 4.61639 56.9796 4.63341 57.6504 4.78652C58.3278 4.94111 58.8982 5.19636 59.3617 5.55226C59.8285 5.9089 60.1641 6.32982 60.3685 6.81503C60.5737 7.29697 60.6215 7.80809 60.5119 8.34837L59.0563 8.01614Z" fill="white"/>
<path d="M69.3548 13.1569L67.9464 12.4787C68.0372 12.1517 68.0639 11.8383 68.0266 11.5386C67.9893 11.2388 67.9022 10.9578 67.7653 10.6954C67.6285 10.433 67.4472 10.1974 67.2215 9.9886C66.9988 9.78126 66.74 9.60658 66.4451 9.46455C65.9124 9.20803 65.3709 9.11225 64.8206 9.17719C64.2734 9.24358 63.7532 9.47689 63.2602 9.87711C62.7701 10.2788 62.3454 10.8528 61.986 11.5991C61.6237 12.3515 61.4383 13.0444 61.4298 13.678C61.4243 14.313 61.5684 14.8644 61.8622 15.3321C62.156 15.7998 62.5662 16.1605 63.0928 16.4141C63.3847 16.5547 63.6804 16.6489 63.9799 16.6967C64.2839 16.743 64.5804 16.7393 64.8694 16.6857C65.1584 16.6321 65.431 16.528 65.6872 16.3733C65.9478 16.2171 66.1777 16.0052 66.3769 15.7379L67.7831 16.4206C67.4891 16.8388 67.1417 17.1868 66.7409 17.4647C66.3446 17.741 65.9113 17.9364 65.4409 18.0509C64.975 18.1639 64.4906 18.192 63.9878 18.1353C63.485 18.0785 62.9793 17.9276 62.4707 17.6827C61.6702 17.2972 61.0483 16.7641 60.605 16.0835C60.1631 15.3999 59.9326 14.616 59.9135 13.7319C59.8974 12.8492 60.1263 11.9158 60.6002 10.9317C61.0755 9.94466 61.6641 9.18447 62.3658 8.65117C63.0689 8.11487 63.8248 7.80784 64.6333 7.7301C65.4433 7.64935 66.2471 7.801 67.0446 8.18505C67.5351 8.42128 67.9585 8.71229 68.3147 9.05808C68.6754 9.4023 68.9605 9.79172 69.1701 10.2263C69.3812 10.6579 69.5046 11.1215 69.5404 11.6169C69.5776 12.1094 69.5157 12.6227 69.3548 13.1569Z" fill="white"/>
<path d="M65.9453 19.3618L72.3429 11.3394L75.2025 13.6198C75.824 14.1155 76.2544 14.6339 76.4936 15.175C76.7355 15.7181 76.8072 16.2603 76.709 16.8014C76.6128 17.3399 76.3679 17.8559 75.9743 18.3495C75.5827 18.8404 75.1349 19.1904 74.6308 19.3993C74.1314 19.6077 73.5931 19.6505 73.016 19.5277C72.4415 19.4071 71.8434 19.0989 71.2219 18.6033L69.0557 16.8758L69.8867 15.8338L71.9432 17.4738C72.3349 17.7862 72.6983 17.9842 73.0333 18.0676C73.3709 18.1532 73.6826 18.1347 73.9683 18.0122C74.2539 17.8897 74.5165 17.6783 74.756 17.378C74.9976 17.075 75.1481 16.7657 75.2076 16.45C75.2698 16.1364 75.2236 15.8219 75.0692 15.5066C74.9196 15.1907 74.645 14.8734 74.2454 14.5548L72.7255 13.3427L67.1557 20.3271L65.9453 19.3618ZM72.792 18.9006L71.8877 24.1007L70.5088 23.0011L71.4523 17.8322L72.792 18.9006Z" fill="white"/>
<path d="M80.4927 26.9132C79.6362 27.5963 78.7748 28.0269 77.9086 28.205C77.045 28.381 76.2297 28.3284 75.4628 28.0471C74.7006 27.7663 74.0435 27.2799 73.4916 26.5878C72.9377 25.8932 72.6076 25.1418 72.5014 24.3336C72.3999 23.5259 72.5323 22.7196 72.8987 21.9148C73.2651 21.1099 73.8753 20.367 74.7292 19.686C75.5858 19.0029 76.4458 18.5733 77.3094 18.3973C78.1757 18.2192 78.9899 18.2705 79.7521 18.5513C80.519 18.8326 81.1794 19.3206 81.7334 20.0153C82.2853 20.7073 82.612 21.4571 82.7135 22.2648C82.8197 23.073 82.6896 23.8795 82.3232 24.6844C81.9594 25.4872 81.3493 26.2301 80.4927 26.9132ZM79.5368 25.7145C80.1897 25.1939 80.655 24.6497 80.9329 24.0821C81.2155 23.515 81.3259 22.957 81.2641 22.4081C81.2071 21.8598 80.9953 21.3558 80.6288 20.8962C80.2601 20.4339 79.8149 20.114 79.293 19.9364C78.7737 19.7566 78.2051 19.7401 77.5873 19.8868C76.9741 20.034 76.3411 20.3679 75.6882 20.8886C75.0354 21.4092 74.5677 21.9531 74.2851 22.5202C74.0072 23.0878 73.8968 23.6458 73.9539 24.1942C74.0135 24.7404 74.2277 25.2447 74.5963 25.7069C74.9628 26.1665 75.4057 26.4862 75.925 26.6659C76.449 26.8462 77.0176 26.8627 77.6307 26.7155C78.2486 26.5688 78.884 26.2352 79.5368 25.7145Z" fill="white"/>
<path d="M76.5475 30.6071L85.7923 26.155L86.4641 27.5498L78.4199 31.4237L80.4373 35.6128L79.2365 36.191L76.5475 30.6071Z" fill="white"/>
<path d="M79.5776 37.4942L89.5813 35.2109L89.9258 36.7202L81.2214 38.707L82.256 43.2399L80.9567 43.5365L79.5776 37.4942Z" fill="white"/>
<path d="M85.9852 49.9838H84.6876V45.4345H85.9852V49.9838Z" fill="white"/>
<path d="M86.9837 59.0566C87.458 59.1101 87.8653 58.9769 88.2055 58.6571C88.549 58.3381 88.7861 57.892 88.917 57.3189C89.0106 56.9086 89.0265 56.5388 88.9646 56.2094C88.906 55.8809 88.7833 55.6079 88.5965 55.3905C88.4122 55.1772 88.1784 55.0382 87.8951 54.9735C87.6574 54.9192 87.4396 54.9278 87.2418 54.9991C87.0432 55.0737 86.8644 55.1888 86.7056 55.3444C86.5492 55.504 86.4078 55.6807 86.2814 55.8745C86.1582 56.0691 86.0498 56.2585 85.9564 56.4427L85.4794 57.3617C85.3284 57.663 85.1479 57.9661 84.9378 58.271C84.7277 58.576 84.4809 58.8468 84.1973 59.0836C83.9137 59.3204 83.5907 59.4899 83.2282 59.5922C82.8649 59.6977 82.4586 59.6991 82.0092 59.5966C81.4426 59.4672 80.9729 59.2059 80.6002 58.8125C80.2267 58.4223 79.9761 57.9214 79.8485 57.3099C79.7201 56.7016 79.7451 56.0066 79.9235 55.2251C80.0944 54.4761 80.3612 53.8552 80.7238 53.3624C81.0864 52.8696 81.5211 52.5183 82.0281 52.3085C82.5383 52.0995 83.0984 52.0474 83.7083 52.1524L83.3627 53.6666C82.9945 53.6134 82.6665 53.6619 82.3787 53.8121C82.0934 53.9662 81.8554 54.1911 81.6646 54.4867C81.4763 54.7864 81.3379 55.1299 81.2494 55.5174C81.1521 55.944 81.1322 56.3386 81.1899 56.7013C81.2502 57.0679 81.3788 57.3748 81.576 57.6219C81.7763 57.8698 82.0393 58.0309 82.365 58.1052C82.6613 58.1729 82.9233 58.1436 83.1508 58.0173C83.3776 57.8944 83.5855 57.7037 83.7747 57.4454C83.9631 57.1903 84.1454 56.8945 84.3216 56.5578L84.9138 55.4493C85.3148 54.698 85.7805 54.1362 86.3108 53.7639C86.8405 53.3949 87.4537 53.2899 88.1506 53.449C88.727 53.5805 89.1944 53.8517 89.5529 54.2624C89.9114 54.6731 90.1486 55.1726 90.2644 55.7609C90.3835 56.35 90.3665 56.9799 90.2134 57.6508C90.0588 58.3281 89.8035 58.8985 89.4476 59.362C89.091 59.8288 88.6701 60.1644 88.1849 60.3689C87.7029 60.5741 87.1918 60.6219 86.6515 60.5123L86.9837 59.0566Z" fill="white"/>
<path d="M81.8435 69.3541L82.5217 67.9457C82.8487 68.0365 83.1621 68.0632 83.4618 68.0259C83.7616 67.9886 84.0426 67.9015 84.305 67.7646C84.5674 67.6278 84.803 67.4465 85.0118 67.2208C85.2191 66.9981 85.3938 66.7393 85.5358 66.4444C85.7924 65.9117 85.8882 65.3702 85.8232 64.8199C85.7568 64.2727 85.5235 63.7525 85.1233 63.2595C84.7216 62.7694 84.1476 62.3447 83.4013 61.9853C82.6489 61.623 81.956 61.4376 81.3224 61.4291C80.6874 61.4236 80.136 61.5677 79.6683 61.8615C79.2006 62.1552 78.8399 62.5655 78.5863 63.0921C78.4457 63.384 78.3515 63.6797 78.3037 63.9792C78.2574 64.2832 78.2611 64.5797 78.3147 64.8687C78.3682 65.1577 78.4724 65.4303 78.6271 65.6865C78.7833 65.9471 78.9952 66.177 79.2625 66.3762L78.5798 67.7824C78.1616 67.4884 77.8136 67.1409 77.5357 66.7402C77.2594 66.3439 77.064 65.9106 76.9495 65.4402C76.8365 64.9743 76.8084 64.4899 76.8651 63.9871C76.9219 63.4843 77.0728 62.9786 77.3177 62.47C77.7032 61.6695 78.2363 61.0476 78.9169 60.6043C79.6005 60.1624 80.3844 59.9319 81.2685 59.9128C82.1512 59.8967 83.0846 60.1256 84.0687 60.5995C85.0557 61.0748 85.8159 61.6634 86.3492 62.3651C86.8855 63.0682 87.1926 63.8241 87.2703 64.6326C87.351 65.4426 87.1994 66.2464 86.8153 67.0439C86.5791 67.5344 86.2881 67.9578 85.9423 68.314C85.5981 68.6747 85.2087 68.9598 84.7741 69.1694C84.3425 69.3805 83.8789 69.5039 83.3835 69.5397C82.891 69.5769 82.3777 69.515 81.8435 69.3541Z" fill="white"/>
<path d="M75.6383 65.9457L83.6607 72.3433L81.3803 75.2029C80.8846 75.8244 80.3662 76.2548 79.8251 76.494C79.2819 76.7358 78.7398 76.8076 78.1987 76.7093C77.6602 76.6131 77.1442 76.3682 76.6506 75.9746C76.1597 75.5831 75.8097 75.1353 75.6008 74.6312C75.3924 74.1318 75.3496 73.5935 75.4723 73.0163C75.593 72.4418 75.9012 71.8438 76.3968 71.2223L78.1243 69.0561L79.1663 69.887L77.5262 71.9435C77.2139 72.3353 77.0159 72.6986 76.9325 73.0337C76.8469 73.3713 76.8654 73.683 76.9879 73.9686C77.1104 74.2543 77.3218 74.5169 77.6221 74.7564C77.9251 74.998 78.2344 75.1485 78.5501 75.208C78.8637 75.2701 79.1781 75.224 79.4935 75.0696C79.8094 74.9199 80.1267 74.6453 80.4453 74.2458L81.6573 72.7259L74.673 67.1561L75.6383 65.9457ZM76.0995 72.7924L70.8994 71.888L71.999 70.5092L77.1679 71.4527L76.0995 72.7924Z" fill="white"/>
<path d="M68.0871 80.4928C67.404 79.6363 66.9734 78.7749 66.7953 77.9087C66.6192 77.0451 66.6719 76.2298 66.9532 75.4629C67.234 74.7007 67.7204 74.0436 68.4124 73.4918C69.1071 72.9378 69.8585 72.6077 70.6667 72.5015C71.4743 72.4 72.2806 72.5324 73.0855 72.8988C73.8903 73.2652 74.6333 73.8754 75.3143 74.7293C75.9973 75.5859 76.4269 76.446 76.6029 77.3096C76.781 78.1758 76.7297 78.99 76.4489 79.7522C76.1676 80.5191 75.6796 81.1796 74.985 81.7335C74.293 82.2854 73.5431 82.6121 72.7354 82.7136C71.9272 82.8198 71.1207 82.6897 70.3158 82.3233C69.5131 81.9596 68.7701 81.3494 68.0871 80.4928ZM69.2857 79.5369C69.8064 80.1898 70.3505 80.6552 70.9181 80.933C71.4853 81.2156 72.0433 81.326 72.5921 81.2643C73.1405 81.2072 73.6445 80.9954 74.1041 80.6289C74.5663 80.2603 74.8862 79.815 75.0639 79.2931C75.2436 78.7738 75.2601 78.2053 75.1135 77.5874C74.9663 76.9742 74.6323 76.3412 74.1117 75.6884C73.591 75.0355 73.0472 74.5678 72.48 74.2852C71.9124 74.0073 71.3544 73.8969 70.8061 73.954C70.2598 74.0137 69.7556 74.2278 69.2933 74.5964C68.8337 74.9629 68.514 75.4059 68.3343 75.9251C68.1541 76.4491 68.1375 77.0177 68.2847 77.6309C68.4314 78.2487 68.7651 78.8841 69.2857 79.5369Z" fill="white"/>
<path d="M64.3927 76.547L68.8448 85.7919L67.4499 86.4636L63.5761 78.4195L59.387 80.4368L58.8087 79.2361L64.3927 76.547Z" fill="white"/>
<path d="M57.5063 79.5777L59.7896 89.5815L58.2802 89.926L56.2935 81.2216L51.7606 82.2562L51.464 80.9569L57.5063 79.5777Z" fill="white"/>
<path d="M45.0161 85.9852V84.6876H49.5654V85.9852H45.0161Z" fill="white"/>
<path d="M35.9437 86.9839C35.8903 87.4582 36.0234 87.8654 36.3432 88.2057C36.6622 88.5491 37.1083 88.7863 37.6814 88.9171C38.0917 89.0107 38.4616 89.0266 38.7909 88.9647C39.1195 88.9061 39.3924 88.7834 39.6098 88.5966C39.8232 88.4124 39.9622 88.1786 40.0268 87.8953C40.0811 87.6575 40.0726 87.4397 40.0012 87.2419C39.9267 87.0433 39.8116 86.8646 39.656 86.7057C39.4964 86.5494 39.3196 86.408 39.1258 86.2815C38.9312 86.1583 38.7418 86.0499 38.5576 85.9565L37.6386 85.4795C37.3373 85.3285 37.0342 85.148 36.7293 84.9379C36.4244 84.7279 36.1535 84.481 35.9167 84.1974C35.68 83.9139 35.5105 83.5908 35.4082 83.2283C35.3027 82.865 35.3012 82.4587 35.4038 82.0093C35.5331 81.4427 35.7945 80.973 36.1879 80.6003C36.578 80.2268 37.0789 79.9763 37.6905 79.8486C38.2988 79.7202 38.9937 79.7452 39.7753 79.9236C40.5242 80.0945 41.1451 80.3613 41.638 80.7239C42.1308 81.0865 42.4821 81.5213 42.6918 82.0282C42.9009 82.5385 42.9529 83.0985 42.848 83.7084L41.3337 83.3628C41.3869 82.9946 41.3384 82.6666 41.1883 82.3788C41.0341 82.0936 40.8092 81.8555 40.5136 81.6647C40.214 81.4764 39.8704 81.338 39.4829 81.2496C39.0563 81.1522 38.6617 81.1324 38.2991 81.1901C37.9324 81.2503 37.6255 81.379 37.3784 81.5761C37.1305 81.7765 36.9694 82.0395 36.8951 82.3651C36.8275 82.6614 36.8568 82.9234 36.983 83.1509C37.106 83.3777 37.2966 83.5856 37.5549 83.7748C37.81 83.9632 38.1059 84.1455 38.4425 84.3217L39.551 84.9139C40.3023 85.3149 40.8641 85.7806 41.2364 86.311C41.6054 86.8406 41.7104 87.4538 41.5514 88.1507C41.4198 88.7271 41.1487 89.1946 40.738 89.553C40.3272 89.9115 39.8277 90.1487 39.2394 90.2645C38.6503 90.3836 38.0204 90.3666 37.3496 90.2135C36.6722 90.0589 36.1018 89.8036 35.6383 89.4477C35.1715 89.0911 34.8359 88.6702 34.6315 88.185C34.4263 87.703 34.3785 87.1919 34.4881 86.6516L35.9437 86.9839Z" fill="white"/>
<path d="M25.6452 81.8431L27.0536 82.5213C26.9628 82.8483 26.9361 83.1617 26.9734 83.4614C27.0107 83.7612 27.0978 84.0422 27.2347 84.3046C27.3715 84.567 27.5528 84.8026 27.7785 85.0114C28.0012 85.2187 28.26 85.3934 28.5549 85.5354C29.0876 85.792 29.6291 85.8878 30.1794 85.8228C30.7266 85.7564 31.2468 85.5231 31.7398 85.1229C32.2299 84.7212 32.6546 84.1472 33.014 83.4009C33.3763 82.6485 33.5617 81.9556 33.5702 81.322C33.5757 80.687 33.4316 80.1356 33.1378 79.6679C32.844 79.2002 32.4338 78.8395 31.9072 78.5859C31.6153 78.4453 31.3196 78.3511 31.0201 78.3033C30.7161 78.257 30.4196 78.2607 30.1306 78.3143C29.8416 78.3679 29.569 78.472 29.3128 78.6267C29.0522 78.7829 28.8223 78.9948 28.6231 79.2621L27.2169 78.5794C27.5109 78.1612 27.8583 77.8132 28.2591 77.5353C28.6554 77.259 29.0887 77.0636 29.5591 76.9491C30.025 76.8361 30.5094 76.808 31.0122 76.8647C31.515 76.9215 32.0207 77.0724 32.5293 77.3173C33.3298 77.7028 33.9517 78.2359 34.395 78.9165C34.8369 79.6001 35.0674 80.384 35.0865 81.2681C35.1026 82.1508 34.8737 83.0842 34.3998 84.0683C33.9245 85.0553 33.3359 85.8155 32.6342 86.3488C31.9311 86.8851 31.1752 87.1922 30.3667 87.2699C29.5567 87.3506 28.7529 87.199 27.9554 86.8149C27.4649 86.5787 27.0415 86.2877 26.6853 85.9419C26.3246 85.5977 26.0395 85.2083 25.8299 84.7737C25.6188 84.3421 25.4954 83.8785 25.4596 83.3831C25.4224 82.8906 25.4843 82.3773 25.6452 81.8431Z" fill="white"/>
<path d="M29.0547 75.6382L22.6571 83.6606L19.7975 81.3802C19.176 80.8845 18.7456 80.3661 18.5064 79.825C18.2645 79.2819 18.1928 78.7397 18.291 78.1986C18.3872 77.6601 18.6321 77.1441 19.0257 76.6505C19.4173 76.1596 19.8651 75.8096 20.3692 75.6007C20.8686 75.3923 21.4069 75.3495 21.984 75.4723C22.5585 75.5929 23.1566 75.9011 23.7781 76.3967L25.9443 78.1242L25.1133 79.1662L23.0568 77.5262C22.6651 77.2138 22.3017 77.0158 21.9667 76.9324C21.6291 76.8468 21.3174 76.8653 21.0317 76.9878C20.7461 77.1103 20.4835 77.3217 20.244 77.622C20.0024 77.925 19.8519 78.2343 19.7924 78.55C19.7302 78.8636 19.7764 79.1781 19.9308 79.4934C20.0804 79.8093 20.355 80.1266 20.7546 80.4452L22.2745 81.6573L27.8443 74.6729L29.0547 75.6382ZM22.208 76.0994L23.1123 70.8993L24.4912 71.9989L23.5477 77.1678L22.208 76.0994Z" fill="white"/>
<path d="M14.5073 68.0868C15.3638 67.4037 16.2252 66.9731 17.0914 66.795C17.955 66.619 18.7703 66.6716 19.5372 66.9529C20.2994 67.2337 20.9565 67.7201 21.5084 68.4122C22.0623 69.1068 22.3924 69.8582 22.4986 70.6664C22.6001 71.4741 22.4677 72.2804 22.1013 73.0852C21.7349 73.8901 21.1247 74.633 20.2708 75.314C19.4142 75.9971 18.5542 76.4267 17.6906 76.6027C16.8243 76.7808 16.0101 76.7295 15.2479 76.4487C14.481 76.1674 13.8206 75.6794 13.2666 74.9847C12.7147 74.2927 12.388 73.5429 12.2865 72.7352C12.1803 71.927 12.3104 71.1205 12.6768 70.3156C13.0406 69.5128 13.6507 68.7699 14.5073 68.0868ZM15.4632 69.2855C14.8103 69.8061 14.345 70.3503 14.0671 70.9179C13.7845 71.485 13.6741 72.043 13.7359 72.5919C13.7929 73.1402 14.0047 73.6442 14.3712 74.1038C14.7399 74.5661 15.1851 74.886 15.707 75.0636C16.2263 75.2434 16.7949 75.2599 17.4127 75.1132C18.0259 74.966 18.6589 74.6321 19.3118 74.1114C19.9646 73.5908 20.4323 73.0469 20.7149 72.4798C20.9928 71.9122 21.1032 71.3542 21.0461 70.8058C20.9865 70.2596 20.7723 69.7553 20.4037 69.2931C20.0372 68.8335 19.5943 68.5138 19.075 68.3341C18.551 68.1538 17.9824 68.1373 17.3693 68.2845C16.7514 68.4312 16.116 68.7648 15.4632 69.2855Z" fill="white"/>
<path d="M18.4525 64.3929L9.20767 68.845L8.53594 67.4502L16.5801 63.5763L14.5627 59.3872L15.7635 58.809L18.4525 64.3929Z" fill="white"/>
<path d="M15.4224 57.5058L5.41867 59.7891L5.07417 58.2798L13.7786 56.293L12.744 51.7601L14.0433 51.4635L15.4224 57.5058Z" fill="white"/>
<path d="M9.01478 45.0162H10.3124V49.5655H9.01478V45.0162Z" fill="white"/>
<path d="M8.01626 35.9434C7.54195 35.89 7.13469 36.0231 6.79447 36.3429C6.45099 36.6619 6.21385 37.108 6.08304 37.6811C5.98939 38.0914 5.9735 38.4613 6.03538 38.7906C6.094 39.1192 6.2167 39.3921 6.40349 39.6095C6.58776 39.8229 6.82156 39.9619 7.10487 40.0265C7.34258 40.0808 7.56038 40.0723 7.75824 40.0009C7.95684 39.9264 8.13557 39.8113 8.29443 39.6557C8.45077 39.4961 8.59217 39.3193 8.71864 39.1255C8.84185 38.9309 8.95017 38.7415 9.04361 38.5573L9.52059 37.6383C9.67159 37.337 9.85212 37.0339 10.0622 36.729C10.2723 36.424 10.5191 36.1532 10.8027 35.9164C11.0863 35.6797 11.4093 35.5101 11.7718 35.4079C12.1351 35.3024 12.5414 35.3009 12.9908 35.4035C13.5574 35.5328 14.0271 35.7942 14.3998 36.1876C14.7733 36.5777 15.0239 37.0786 15.1515 37.6902C15.2799 38.2985 15.2549 38.9934 15.0765 39.775C14.9056 40.5239 14.6388 41.1448 14.2762 41.6377C13.9136 42.1305 13.4789 42.4818 12.9719 42.6915C12.4617 42.9006 11.9016 42.9526 11.2917 42.8477L11.6373 41.3334C12.0055 41.3866 12.3335 41.3381 12.6213 41.188C12.9066 41.0338 13.1446 40.8089 13.3354 40.5133C13.5237 40.2137 13.6621 39.8701 13.7506 39.4826C13.8479 39.056 13.8678 38.6614 13.8101 38.2988C13.7498 37.9321 13.6212 37.6252 13.424 37.3781C13.2237 37.1302 12.9607 36.9691 12.635 36.8948C12.3387 36.8272 12.0767 36.8565 11.8492 36.9827C11.6224 37.1057 11.4145 37.2963 11.2253 37.5546C11.0369 37.8097 10.8546 38.1056 10.6784 38.4422L10.0862 39.5507C9.68521 40.302 9.21952 40.8638 8.68915 41.2361C8.15953 41.6051 7.54628 41.7101 6.8494 41.5511C6.27301 41.4195 5.80557 41.1484 5.44708 40.7376C5.08858 40.3269 4.85142 39.8274 4.73559 39.2391C4.61651 38.65 4.63353 38.0201 4.78664 37.3493C4.94124 36.6719 5.19648 36.1015 5.55238 35.638C5.90902 35.1712 6.32995 34.8356 6.81515 34.6311C7.2971 34.4259 7.80821 34.3782 8.3485 34.4878L8.01626 35.9434Z" fill="white"/>
<path d="M13.1565 25.6459L12.4783 27.0543C12.1513 26.9635 11.8379 26.9368 11.5382 26.9741C11.2384 27.0114 10.9574 27.0985 10.695 27.2354C10.4326 27.3722 10.197 27.5535 9.9882 27.7792C9.78086 28.0019 9.60618 28.2607 9.46415 28.5556C9.20764 29.0883 9.11185 29.6298 9.17679 30.1801C9.24318 30.7273 9.47649 31.2475 9.87672 31.7405C10.2784 32.2306 10.8524 32.6553 11.5987 33.0147C12.3511 33.377 13.044 33.5624 13.6776 33.5709C14.3126 33.5764 14.864 33.4323 15.3317 33.1385C15.7994 32.8448 16.1601 32.4345 16.4137 31.9079C16.5543 31.616 16.6485 31.3203 16.6963 31.0208C16.7426 30.7168 16.7389 30.4203 16.6853 30.1313C16.6318 29.8423 16.5276 29.5697 16.3729 29.3135C16.2167 29.0529 16.0048 28.823 15.7375 28.6238L16.4202 27.2176C16.8384 27.5116 17.1864 27.8591 17.4643 28.2598C17.7406 28.6561 17.936 29.0894 18.0505 29.5598C18.1635 30.0257 18.1916 30.5101 18.1349 31.0129C18.0781 31.5157 17.9272 32.0214 17.6823 32.53C17.2968 33.3305 16.7637 33.9524 16.0831 34.3957C15.3995 34.8376 14.6156 35.0681 13.7315 35.0872C12.8488 35.1033 11.9154 34.8744 10.9313 34.4005C9.94427 33.9252 9.18408 33.3366 8.65078 32.6349C8.11447 31.9318 7.80745 31.1759 7.72971 30.3674C7.64896 29.5574 7.80061 28.7536 8.18466 27.9561C8.42089 27.4656 8.71189 27.0422 9.05768 26.686C9.4019 26.3253 9.79132 26.0402 10.2259 25.8306C10.6575 25.6195 11.1211 25.4961 11.6165 25.4603C12.109 25.4231 12.6223 25.485 13.1565 25.6459Z" fill="white"/>
<path d="M19.3617 29.0543L11.3393 22.6567L13.6197 19.7971C14.1154 19.1756 14.6338 18.7452 15.1749 18.506C15.7181 18.2642 16.2602 18.1924 16.8013 18.2907C17.3398 18.3869 17.8558 18.6318 18.3494 19.0254C18.8403 19.4169 19.1903 19.8647 19.3992 20.3688C19.6076 20.8682 19.6504 21.4065 19.5277 21.9837C19.407 22.5582 19.0988 23.1562 18.6032 23.7777L16.8757 25.9439L15.8337 25.113L17.4738 23.0565C17.7861 22.6647 17.9841 22.3014 18.0675 21.9663C18.1531 21.6287 18.1346 21.317 18.0121 21.0314C17.8896 20.7457 17.6782 20.4831 17.3779 20.2436C17.0749 20.002 16.7656 19.8515 16.4499 19.792C16.1363 19.7299 15.8219 19.776 15.5065 19.9304C15.1906 20.0801 14.8733 20.3547 14.5547 20.7542L13.3427 22.2741L20.327 27.8439L19.3617 29.0543ZM18.9005 22.2076L24.1006 23.112L23.001 24.4908L17.8321 23.5473L18.9005 22.2076Z" fill="white"/>
<path d="M26.9129 14.5072C27.596 15.3637 28.0266 16.2251 28.2047 17.0913C28.3808 17.9549 28.3281 18.7702 28.0468 19.5371C27.766 20.2993 27.2796 20.9564 26.5876 21.5082C25.8929 22.0622 25.1415 22.3923 24.3333 22.4985C23.5257 22.6 22.7194 22.4676 21.9145 22.1012C21.1097 21.7348 20.3667 21.1246 19.6857 20.2707C19.0027 19.4141 18.5731 18.554 18.3971 17.6904C18.219 16.8242 18.2703 16.01 18.5511 15.2478C18.8324 14.4809 19.3204 13.8204 20.015 13.2665C20.707 12.7146 21.4569 12.3879 22.2646 12.2864C23.0728 12.1802 23.8793 12.3103 24.6842 12.6767C25.4869 13.0404 26.2299 13.6506 26.9129 14.5072ZM25.7143 15.4631C25.1936 14.8102 24.6495 14.3448 24.0819 14.067C23.5147 13.7844 22.9567 13.674 22.4079 13.7357C21.8595 13.7928 21.3555 14.0046 20.8959 14.3711C20.4337 14.7397 20.1138 15.185 19.9361 15.7069C19.7564 16.2262 19.7399 16.7947 19.8865 17.4126C20.0337 18.0258 20.3677 18.6588 20.8883 19.3116C21.409 19.9645 21.9528 20.4322 22.52 20.7148C23.0876 20.9927 23.6456 21.1031 24.1939 21.046C24.7402 20.9863 25.2444 20.7722 25.7067 20.4036C26.1663 20.0371 26.486 19.5941 26.6657 19.0749C26.8459 18.5509 26.8625 17.9823 26.7153 17.3691C26.5686 16.7513 26.2349 16.1159 25.7143 15.4631Z" fill="white"/>
<path d="M30.6073 18.453L26.1552 9.20812L27.5501 8.5364L31.4239 16.5805L35.613 14.5632L36.1913 15.7639L30.6073 18.453Z" fill="white"/>
<path d="M37.4937 15.4222L35.2104 5.41848L36.7198 5.07397L38.7065 13.7784L43.2394 12.7438L43.536 14.0431L37.4937 15.4222Z" fill="white"/>
</svg>
