<svg width="84" height="84" viewBox="0 0 84 84" fill="none" xmlns="http://www.w3.org/2000/svg">
<path d="M72.731 56.98C73.1947 56.4824 73.4471 55.8242 73.4351 55.1442C73.4231 54.4641 73.1476 53.8153 72.6667 53.3343C72.1858 52.8534 71.5369 52.5779 70.8569 52.5659C70.1768 52.5539 69.5186 52.8063 69.021 53.27L57.751 64.54L57.751 37.625C57.751 33.6799 56.1838 29.8964 53.3942 27.1068C50.6046 24.3172 46.8211 22.75 42.876 22.75L14.001 22.75C13.3048 22.75 12.6371 23.0266 12.1449 23.5188C11.6526 24.0111 11.376 24.6788 11.376 25.375C11.376 26.0712 11.6526 26.7389 12.1449 27.2312C12.6371 27.7234 13.3048 28 14.001 28L42.876 28C45.4287 28 47.8769 29.0141 49.6819 30.8191C51.487 32.6241 52.501 35.0723 52.501 37.625L52.501 64.5365L41.231 53.2665C40.7357 52.7886 40.0725 52.5243 39.3842 52.5306C38.696 52.5369 38.0377 52.8133 37.5513 53.3002C37.0648 53.7871 36.789 54.4456 36.7834 55.1339C36.7777 55.8222 37.0426 56.4851 37.521 56.98L53.271 72.73C53.7632 73.2216 54.4304 73.4977 55.126 73.4977C55.8216 73.4977 56.4888 73.2216 56.981 72.73L72.731 56.98Z" fill="white"/>
</svg>
