<svg width="28" height="28" viewBox="0 0 28 28" fill="none" xmlns="http://www.w3.org/2000/svg">
<path fill-rule="evenodd" clip-rule="evenodd" d="M11.0012 10.4638H15.3342V12.6222C15.9583 11.3808 17.559 10.2655 19.9635 10.2655C24.573 10.2655 25.6673 12.7365 25.6673 17.2702V25.6667H21.0007V18.3027C21.0007 15.7208 20.3765 14.2648 18.7875 14.2648C16.5837 14.2648 15.6678 15.834 15.6678 18.3015V25.6667H11.0012V10.4638ZM2.99898 25.4683H7.66565V10.2655H2.99898V25.4683ZM8.33415 5.30834C8.33432 5.69949 8.25675 6.08678 8.10594 6.44769C7.95512 6.8086 7.73408 7.13593 7.45565 7.41067C6.89145 7.9714 6.12776 8.28526 5.33232 8.28334C4.53827 8.2828 3.77635 7.96973 3.21132 7.41184C2.9339 7.13617 2.7136 6.80846 2.56305 6.44751C2.4125 6.08655 2.33466 5.69943 2.33398 5.30834C2.33398 4.5185 2.64898 3.7625 3.21248 3.20484C3.77702 2.64619 4.53926 2.33299 5.33348 2.33334C6.12915 2.33334 6.89215 2.64717 7.45565 3.20484C8.01798 3.7625 8.33415 4.5185 8.33415 5.30834Z" fill="#042825"/>
</svg>
